<?xml version="1.0" encoding="UTF-8" standalone="no"?>
<svg xmlns:svg="http://www.w3.org/2000/svg" xmlns="http://www.w3.org/2000/svg" version="1.0"
   width="460px" height="460px" viewBox="0 0 230 230" >
  <g transform="translate(-353.6,-205.9)"
     style="stroke-opacity:1; stroke-linecap:butt;stroke-linejoin:miter; stroke-miterlimit:4; fill-opacity:1; fill-rule:evenodd;">

    <!-- black, thin arc -->
    <path style="fill:none; stroke:#000000; stroke-width:4;"
       d="M 555.8 410.6 A 163.5 163.5 0 1 1  228.8,410.6 A 163.5 163.5 0 1 1  555.8 410.6 z"
       transform="matrix(0.9207,0,0,0.9207,38.1060,13.9311)" />

    <!-- blue arc measure-->
    <g style="fill:#0000FF; stroke:#0000FF; stroke-width:2;">
      <path d="M 488.1,251.3  L 487.0,253.0 A 158,158 0 0 1 563.5,392.9 L 565.5,392.9  A 160,160 0 0 0 488.1,251.3 z " />
      <path d="M 482.7,259.8 L 492.4,244.5" />
      <path d="M 555.4,392.9 L 573.5,393.0" />
      <text style=" fill:#0000FF; stroke:none; font-size:20; font-family:Arial,sans-serif; font-weight:500;"
          x="370" y="230" >arc length = radius</text>
    </g>

    <!-- red measure -->
    <g style="fill:#FF0000; stroke:#FF0000; stroke-width:2;">
      <rect x="397" y="407" width="153" height="2" />    
      <line x1="550" y1="417" x2="550" y2="400" />
      <line x1="397" y1="417" x2="397" y2="400" />
    </g> 
    <text style="font-size:20; fill:#FF0000; stroke:none; font-family:Arial,sans-serif; font-weight:500;"
        x="442" y="428">radius</text>
    
    <!-- green arc and text -->
    <path style="fill:none; stroke:#008000;stroke-width:2;" d="M 421.6,354.4 A 50,50 0 0 1 442.1,390.0" />  
    <text style=" fill:#008000; stroke:none; font-size:20; font-family:Arial,sans-serif; font-weight:500;"
        x="440" y="375" >1 radian</text>

   <!-- big "pie" -->
    <path style="fill:none; stroke:#000000; stroke-width:9;" 
       d="M 479.5,272.3 A 163.5,163.5 0 0 1 555.8,410.1 L 392.3,410.6 z"
       transform="matrix(0.9207,0,0,0.9207,38.1059,13.9311)" />
  </g>
</svg>
